<svg xmlns="http://www.w3.org/2000/svg" viewBox="0 0 800 700"><g data-name="Layer 1" fill="#000000" class="color000 svgShape"><path fill="#feeed6" d="M616.61,68.11c-114.21-19.42-176,89.13-188.82,151.06S337.16,349.83,177,344.54-8,508.44,61.49,581.7s456.94,132.17,598.93-45.32S838.66,105.88,616.61,68.11Z" class="colorfeeed6 svgShape"/><path fill="#feeed6" d="M366,46.87c-63,1.79-56.85,86.26-111.66,77.92S136.41,143.32,139.67,200.4,215.08,314.32,333,253.47,419.63,45.35,366,46.87Z" class="colorfeeed6 svgShape"/><path fill="#f47a50" d="M449.58,555.52c7.6,17.73,3.79,37.05,3,37.37-1.22.29-89.38-.53-89.38-.53,2.59-7.05,13.81-15.52,34.65-22s27.34-15,27.61-17.29S449.58,555.52,449.58,555.52Z" class="colorf47a50 svgShape"/><path fill="#bf766b" d="M441.66,576.25a33.92,33.92,0,0,1,11.9-6.16c1.75,12.35-.42,22.57-1,22.8-1.22.29-89.38-.53-89.38-.53,2.59-7.05,13.81-15.52,34.65-22a75.85,75.85,0,0,0,19.35-8.67c2.9,2.71-1.44,9.28-.56,11.45C417.68,575.78,434.48,582.12,441.66,576.25Z" class="colorbf766b svgShape"/><path fill="#784b44" d="M365.67 588.11c6.91.06 79 .73 87.94.57-.38 2.56-.84 4.12-1.06 4.21-1.22.29-89.38-.53-89.38-.53A15.38 15.38 0 01365.67 588.11zM415.53 573.14a.82.82 0 00-.94-1.33 93 93 0 01-32.48 11.92.85.85 0 00-.74.92.8.8 0 00.91.72 95.1 95.1 0 0033.15-12.15zM407.62 570.85a1.37 1.37 0 10.22-1.89A1.34 1.34 0 00407.62 570.85zM394.9 575.44a1.37 1.37 0 10.22-1.9A1.34 1.34 0 00394.9 575.44zM380.17 580.91a1.37 1.37 0 10.22-1.9A1.36 1.36 0 00380.17 580.91z" class="color784b44 svgShape"/><path fill="#784b44" d="M408.81 570.09a.42.42 0 00.12-.5 19.85 19.85 0 00-2.36-3.63.42.42 0 00-.63.56 19 19 0 012.24 3.45.4.4 0 00.55.17zM396.29 574.92a.41.41 0 00.11-.51 18.79 18.79 0 00-2.36-3.62.4.4 0 00-.58 0 .42.42 0 000 .59 18.3 18.3 0 012.24 3.45.41.41 0 00.56.17zM381.77 581a.44.44 0 00.12-.51 19.57 19.57 0 00-2.36-3.62.41.41 0 00-.59 0 .42.42 0 00-.05.58 18.72 18.72 0 012.25 3.45.41.41 0 00.55.18z" class="color784b44 svgShape"/><path d="M437.11,571.91a10.45,10.45,0,0,0,2.83-4.09.39.39,0,0,0-.23-.53.43.43,0,0,0-.54.24c-1.16,2.8-2.95,4.57-4.8,4.73s-3.62-1.2-5.19-3.94a.41.41,0,0,0-.57-.14.41.41,0,0,0-.16.56c2.2,3.83,4.46,4.48,6,4.34A5,5,0,0,0,437.11,571.91Z" style="mix-blend-mode:multiply" fill="#fabba8" class="colorfabba8 svgShape"/><path fill="#504843" d="M435.1,291.67s-9.82,139.48-8.31,154.58-3.53,101.21-3.53,101.21l-5.54,11.08,13.6,4.53h18.13l5.53,2,2-13.59,9.06-129.91,7.55-130.41s-3.52-4-6.54-4S435.1,291.67,435.1,291.67Z" class="color504843 svgShape"/><path fill="#f47a50" d="M510.76,555.52c7.6,17.73,3.79,37.05,3,37.37-1.21.29-89.38-.53-89.38-.53,2.59-7.05,13.82-15.52,34.66-22s27.34-15,27.61-17.29S510.76,555.52,510.76,555.52Z" class="colorf47a50 svgShape"/><path fill="#bf766b" d="M502.84,576.25a33.92,33.92,0,0,1,11.9-6.16c1.74,12.35-.42,22.57-1,22.8-1.21.29-89.38-.53-89.38-.53,2.59-7.05,13.82-15.52,34.66-22a75.59,75.59,0,0,0,19.34-8.67c2.91,2.71-1.43,9.28-.55,11.45C478.86,575.78,495.66,582.12,502.84,576.25Z" class="colorbf766b svgShape"/><path fill="#784b44" d="M426.85 588.11c6.91.06 79 .73 87.94.57-.38 2.56-.84 4.12-1.07 4.21-1.21.29-89.38-.53-89.38-.53A15.69 15.69 0 01426.85 588.11zM476.7 573.14a.81.81 0 00-.93-1.33 93 93 0 01-32.48 11.92.85.85 0 00-.75.92.8.8 0 00.91.72 95 95 0 0033.15-12.15zM468.79 570.85a1.36 1.36 0 001.91.16 1.33 1.33 0 10-1.91-.16zM456.07 575.44a1.36 1.36 0 001.91.16 1.33 1.33 0 10-1.69-2.06A1.36 1.36 0 00456.07 575.44zM441.35 580.91a1.37 1.37 0 10.22-1.9A1.34 1.34 0 00441.35 580.91z" class="color784b44 svgShape"/><path fill="#784b44" d="M470 570.09a.42.42 0 00.12-.5 19.85 19.85 0 00-2.36-3.63.41.41 0 00-.59 0 .4.4 0 00-.05.58 20 20 0 012.25 3.45.4.4 0 00.55.17zM457.46 574.92a.42.42 0 00.12-.51 19.34 19.34 0 00-2.36-3.62.41.41 0 00-.59 0 .42.42 0 000 .59 18.3 18.3 0 012.24 3.45.41.41 0 00.56.17zM443 581a.42.42 0 00.11-.51 18.73 18.73 0 00-2.35-3.62.41.41 0 00-.59 0 .4.4 0 00-.05.58 19 19 0 012.24 3.45.42.42 0 00.56.18z" class="color784b44 svgShape"/><path d="M498.29,571.91a10.34,10.34,0,0,0,2.82-4.09.4.4,0,0,0-.22-.53.43.43,0,0,0-.54.24c-1.16,2.8-3,4.57-4.8,4.73s-3.62-1.2-5.19-3.94a.42.42,0,0,0-.73.42c2.2,3.83,4.46,4.48,6,4.34A5,5,0,0,0,498.29,571.91Z" style="mix-blend-mode:multiply" fill="#fabba8" class="colorfabba8 svgShape"/><path fill="#6f625c" d="M456.12,287.9s-4.16,31,0,32.1,7.93-3.4,9.44,3S478,549.6,478,549.6l-7.74,8.12-.38,8.68,28-1.51,20.58,10.58s.12-15.17-.25-16.68-1.26-272.4-1.26-272.4Z" class="color6f625c svgShape"/><rect width="94.91" height="9.32" x="435.1" y="282.36" fill="#4d2018" class="color4d2018 svgShape"/><path fill="#f47a50" d="M358.21,154.12c-.91-2.67.85-5.19-1.91-11.61s-3.78-12.72-2.14-17.12-2-5-4.79-1.64-1.51,11.08-4.15,9.82-8.56-14.1-13.22-17.24-4.78,1.63-2.52,5.28,9.19,12.34,7.43,13.72-12.84-16.49-15.86-15.73-2.9,4.15-1,6.8c-2.52,4.78-2,6.16.51,9.69s9.31,10.45,6.54,10.19-8.18-8.05-9.44-7.55-1.51,4.28,1.39,8.06,4.53,5.16,6.29,8.18,6,8.56,9.31,9.06,8.19,5.42,8.19,5.42l13.47-7.18S359.25,158.43,358.21,154.12Z" class="colorf47a50 svgShape"/><path fill="#b5d6f1" d="M442,131l-4.06,3.21.19,1s-18,7.93-19.83,10.76-16.05,37.58-22.75,43.24c-12.75-16.33-33.33-27.76-37.3-35.12-1.6,4.53-16.42,15-16.42,15l6,7.08c2.64,8.22,33.52,53.91,37.29,56.93s10.76,2.64,14,.57,26.06-24.36,26.06-24.36,2.64,41.92,2.64,55.13S431,282.42,434.4,283s79.68,0,79.68,0L540,253.16s-4.34-55.52-4.34-56.65c0-23.22-12.27-50.41-29.27-56.46-18.88-6.79-29.83-10.38-29.83-10.38l-.63-2.52-9.57-3.27Z" class="colorb5d6f1 svgShape"/><path fill="#4d2018" d="M452.15,63.77c-5.1-5.29-10.76-5.1-7.55-.94-13-2.27-31.91,9.25-29.27,14.54s5.29,1.32,2.65,7.36,4.91,18.32,10.95,19.83,38.33,7.55,38.33,7.55c2.83-1.13,4.53-1.51,4.34-9.06s1.51-22.85,0-29.27S460.27,59.24,452.15,63.77Z" class="color4d2018 svgShape"/><path fill="#f47a50" d="M424.9,84.23c-1.76,7-.5,16.36,1.64,21.14,5.28,24.42,11.7,26.82,14.22,27.7s4.72-.51,4.66,1.76a4.3,4.3,0,0,1-.38,1.76c.63,1.89,4,9.82,9.57,8.31S469.46,138,471.35,127c-3.15-4.27-4-24-4-24l-9.13-.5c-2.39,1-.69-10.83-3.08-14.1s-2.9-.76-6.67-.38S443,85.86,441,84.35,427.16,91.53,424.9,84.23Z" class="colorf47a50 svgShape"/><path d="M457.12 123.94c-2 4.78-7.29 8.49-12.92 9.5.77.07 1.25.32 1.22 1.39 0 .21 0 .4-.05.58C447.9 138.37 452.91 133.87 457.12 123.94zM459.8 120.51a.33.33 0 01-.17 0 .38.38 0 01-.17-.51c1.9-3.79 2.11-5.5.3-16.57a.37.37 0 01.74-.12c1.85 11.29 1.62 13.06-.36 17A.39.39 0 01459.8 120.51z" style="mix-blend-mode:multiply" fill="#fabba8" class="colorfabba8 svgShape"/><polygon fill="#4f4f4f" points="555.83 559.17 639.58 578.53 639.58 591.89 624.41 591.89 624.41 585.08 553.58 577.44 555.83 559.17" class="color4f4f4f svgShape"/><polygon fill="#4f4f4f" points="544.59 559.17 460.84 578.53 460.84 591.89 476.01 591.89 476.01 585.08 546.84 577.44 544.59 559.17" class="color4f4f4f svgShape"/><rect width="17.6" height="104.51" x="540.48" y="487.19" fill="#5e5e5e" transform="rotate(180 549.28 539.44)" class="color5e5e5e svgShape"/><polygon fill="#4f4f4f" points="530.12 489.78 568.48 489.78 573.54 468.92 525.06 468.92 530.12 489.78" class="color4f4f4f svgShape"/><path fill="#febe30" d="M566.23,284.33h88.63c13.79,0,23.65,12.92,19.63,25.72L628.36,456.68a22.12,22.12,0,0,1-21.22,15.24H467.3a12.74,12.74,0,0,1-12.93-12.54V422.84s102.3-50.17,100.06-54S566.23,284.33,566.23,284.33Z" class="colorfebe30 svgShape"/><rect width="2" height="12.07" x="548.35" y="473.32" fill="#363636" rx=".88" transform="rotate(180 549.35 479.35)" class="color363636 svgShape"/><rect width="2" height="12.07" x="548.47" y="566.85" fill="#363636" rx=".88" transform="rotate(-90 549.475 572.875)" class="color363636 svgShape"/><path fill="#de6445" d="M421,383.06c-4.28,2.27,5.79,182.53.75,186.05s-42.85,21.72-41,22.16,63.94-.51,64.7-.51c1.26-6-3.78-19.38-4.28-20.14-.76-4.78,4.53-37.76,12.08-68.22S458,404.21,458,404.21Z" class="colorde6445 svgShape"/><path fill="#f47a50" d="M435.85,401.94s-3,9.07-1,15.11,67.47,138.21,67.47,138.21c-2,13.1-5.79,30-7,29.84-6.17.63-11.84,6.79-11.84,6.79l23.82-.19L532,559c-4.4-4.66-16.87-11.33-16.87-11.33-1.88-3.15-18.63-91.76-31.47-107.62S435.85,401.94,435.85,401.94Z" class="colorf47a50 svgShape"/><path fill="#a72123" d="M518.43,369.47S421,380.8,421,383.06c7.55,18.13,63.44,62.69,73.26,63.45s95.92,3,102.72-14.36,0-66.46,0-66.46S523,366.45,518.43,369.47Z" class="colora72123 svgShape"/><path fill="#4d2018" d="M622.22,307l-.64-1c12.61-7.82,8.17-16.67,4.61-23.78-1.93-3.84-3.6-7.16-2-9.52,2.2-3.3,3.59-9.34,1.75-15.39-2-6.44-7.26-11.61-15.33-14.93-18.45-7.61-18.1-9.52-14.74-27.72.39-2.15.83-4.53,1.29-7.19l1.19.21c-.46,2.66-.9,5-1.3,7.2-3.32,18.06-3.52,19.14,14,26.38,10.63,4.38,14.58,10.95,16,15.7,1.95,6.42.45,12.87-1.91,16.41-1.18,1.78.34,4.8,2.1,8.31C630.85,288.84,635.77,298.64,622.22,307Z" class="color4d2018 svgShape"/><path fill="#4d2018" d="M628.06 275.78l-1-.69c5.41-7.84 7.43-14 6.18-18.95-1.81-7.07-10.31-11.36-20.15-16.33l-.91-.47c-15.83-8-15.82-9.3-15.66-25.22 0-1.72 0-3.62 0-5.71h1.21c0 2.1 0 4 0 5.72-.15 15.54-.16 16.47 15 24.14l.92.46c10.1 5.1 18.83 9.51 20.77 17.11C635.76 261.11 633.68 267.63 628.06 275.78zM545.19 187.42c-3.15-8.62-1.66-16.76 4-21.78 5.32-4.74 13.1-5.43 20.29-1.81l-.67 1.35c-6.64-3.34-13.77-2.73-18.62 1.59-5.16 4.59-6.49 12.12-3.56 20.13z" class="color4d2018 svgShape"/><path fill="#4d2018" d="M585.27,183.86c-8.12-9.63-10.2-23.23-21.15-21.71s-19.45,11.7-17.18,21.52,1.89,34-6,46.26-17.37,13-12.47,26.44,44.94,54.19,64,55.89,31.35-10,30.59-19.45-7.74-17.75-3-21,8.12-16.43-8.5-22.85-21.52-10.38-16.8-24.17S604.72,200.1,585.27,183.86Z" class="color4d2018 svgShape"/><path fill="#f2e8e0" d="M524,253.91c-7.05-.38-11.21,7.18-14.61,18.13s-28.14,64.19-28.14,64.19l12,21.15c9.37-1.13,23-18.5,25.6-21.14S524,253.91,524,253.91Z" class="colorf2e8e0 svgShape"/><path fill="#ffffff" d="M595,329.94c-3.27-15.61,10.07-54.88,4.28-64.45s-19.64-12.08-22.66-14.85c0-2-11.07-4.28-11.07-4.28H545.37c-3.53.75-11.08,1-11.08,2.77-.76,2-10.32,4.78-10.32,4.78-.76,9.32-11.33,35.75-16.12,41.79s-4.53,10.83,3,22.66-1,48.59,6,55.39c0,0,42.54,17.87,81.31,8.81C605.79,375.76,598.23,345.55,595,329.94Z" class="colorfff svgShape"/><path fill="#de6445" d="M493.2,357.38c-1.76-7.75-12-21.15-12-21.15-4.23-.35-55.34,15.87-60.28,14.81s-18.68-2.47-26.43.7-8.28,5.29-7.58,5.29Z" class="colorde6445 svgShape"/><path fill="#f47a50" d="M565.51,177.75c-7.18.51-17.5,2.9-19.89,5.54s-5.79,9.19-7.18,10-11.33,1.26-11.58,1.89a3.44,3.44,0,0,0,.06,3.14c.76,1.26,0,4.22-.75,4.66l-.46.25a1.73,1.73,0,0,0-.9,1.93,12.78,12.78,0,0,0,.92,2.79c-1.51,1.64-2.14,3.65-1.83,4.28s1.32,1.26.51,2.83-2.46,6-2.33,8.38,2.77,3.46,6.79,4.21,9.45.38,13.35,10.07,1.89,12.46-1.64,13.35c-5.29,4.15-9.44,14.35-6.54,15.23s1.38,8.43,3,7.8,2.77-4.91,4.78-4.4,11.83,1.13,17.5-1.89,11.33-15.23,11.2-20.14c-6-1.14-8.06-29.58-7.55-26.69,0-2.27-.51-6.42-.88-6.42-4.66-1.26-4-6.92-.63-10.2s4.28-4.15,1.89-5.79-9.57-16.36,1.13-17.87C563.24,179,565.51,177.75,565.51,177.75Z" class="colorf47a50 svgShape"/><path fill="#f16040" d="M571.92,214.38a7.06,7.06,0,1,1-7.06-6.85A7,7,0,0,1,571.92,214.38Z" class="colorf16040 svgShape"/><path d="M564.86 209.45a5.2 5.2 0 00-1.78.31l-.1 0a5 5 0 00-3.21 4.58.41.41 0 00.42.4.4.4 0 00.41-.4 4.14 4.14 0 012.66-3.82 3.37 3.37 0 11-.09 6.74.4.4 0 100 .8 4.25 4.25 0 004.31-4.18 4.16 4.16 0 00-2.22-3.65 4.18 4.18 0 013.85 4.11.42.42 0 00.84 0A5 5 0 00564.86 209.45zM531.17 204.57a2.11 2.11 0 001.49-.3 2.26 2.26 0 00.93-2.25.28.28 0 00-.31-.26.28.28 0 00-.26.29 1.76 1.76 0 01-.68 1.76 1.52 1.52 0 01-1.45.1.28.28 0 00-.38.13.27.27 0 00.13.37A2 2 0 00531.17 204.57z" style="mix-blend-mode:multiply" fill="#fabba8" class="colorfabba8 svgShape"/><path fill="#4d2018" d="M529.51 201.05c-.13.11.19.65.69 1.23s1 .95 1.15.85-.19-.66-.7-1.23S529.63 201 529.51 201.05zM547 198.48c-.86.84-2 1.05-2.57.48s-.32-1.72.54-2.56 2-1.05 2.57-.48S547.84 197.64 547 198.48z" class="color4d2018 svgShape"/><path fill="#4d2018" d="M549.11 196l0 0a3.18 3.18 0 00-1.48-2.77.28.28 0 00-.39.06.28.28 0 00.06.39A3 3 0 01548.4 195a4 4 0 00-2.09-.93.29.29 0 00-.32.23.28.28 0 00.23.32 2.86 2.86 0 012.35 1.55 3.94 3.94 0 01-.7 3.62.27.27 0 000 .33.17.17 0 00.06.06.27.27 0 00.38-.08A4.47 4.47 0 00549.11 196zM547.88 188.67A18 18 0 01552 201.14C556 192.73 553.36 183.86 547.88 188.67z" class="color4d2018 svgShape"/><path fill="#d04b38" d="M535.09,212.32l-9.54-4.79a3.21,3.21,0,0,0,.18.37c-1.51,1.64-2.14,3.65-1.83,4.28C528.86,214,535.09,212.32,535.09,212.32Z" class="colord04b38 svgShape"/><path fill="#4d2018" d="M550.81,186.64a3.94,3.94,0,0,0-3.12,1.94C547.46,186.46,548.92,184.85,550.81,186.64Z" class="color4d2018 svgShape"/><path fill="#e3533c" d="M535.42,212s-4.13-3.16-5-4.67a6,6,0,0,0-5.59-3.1,1.59,1.59,0,0,0,0,.84,12.78,12.78,0,0,0,.92,2.79l-.14.16,1.76,1.08L534.1,212Z" class="colore3533c svgShape"/><path fill="#4d2018" d="M535.37,212.49a.23.23,0,0,0,.22-.18.23.23,0,0,0-.17-.27,31.21,31.21,0,0,1-9.78-4.31l.09.17c-.09.09-.16.19-.24.28a32.19,32.19,0,0,0,9.82,4.3Z" class="color4d2018 svgShape"/><path d="M544.23 226.6a.39.39 0 01-.35-.25.38.38 0 01.22-.49c.09 0 9.1-3.55 12.64-9.9a.38.38 0 01.52-.14.37.37 0 01.14.51c-3.67 6.59-12.65 10.09-13 10.24A.35.35 0 01544.23 226.6zM542.22 237.67a26.44 26.44 0 012.08 7.59c2.24-4.57-2.09-14.95-3.12-16.46s-10.41-.91-16.23-2.25a20.94 20.94 0 003.92 1C532.9 228.36 538.32 228 542.22 237.67z" style="mix-blend-mode:multiply" fill="#fabba8" class="colorfabba8 svgShape"/><path fill="#f47a50" d="M537.5,329.57c-5.53-9.88-41.55-34-45.24-37.52s-2.17-12.9-2-15.58a18.8,18.8,0,0,0-2-9.05c-1.34-2.35-2.17-10.3-2.17-11.73s-3.1,0-3.44,3,.17,9.8-1.34,10.64-4.44-5.78-6.53-10.39-5.7-12.23-7.54-11.65-1.93,3.44-1.59,4.28c-2.52,1.76-2.43,3.93-1.93,5.19a7.79,7.79,0,0,0-1.26,6.87c-1.09,1.67-1,9,.51,13.74s8.79,13,15.41,18.17,27.81,39.54,32.84,46.24,18.43,14.75,24.62,14.08S542.69,333.76,537.5,329.57Z" class="colorf47a50 svgShape"/><path d="M474.06 267.25h0a.37.37 0 01-.15.5 1.56 1.56 0 00-.69 1.81.36.36 0 01-.26.45.39.39 0 01-.45-.28 2.29 2.29 0 011.05-2.64A.38.38 0 01474.06 267.25zM472.22 272.11h0a.36.36 0 01-.14.5 1.55 1.55 0 00-.69 1.8.36.36 0 01-.26.45.37.37 0 01-.45-.27 2.27 2.27 0 011.05-2.64A.38.38 0 01472.22 272.11zM470.6 277.18h0a.37.37 0 010 .52 1.53 1.53 0 00-.31 1.9.37.37 0 01-.16.5.38.38 0 01-.5-.18 2.28 2.28 0 01.49-2.8A.38.38 0 01470.6 277.18zM471.21 266a.34.34 0 01-.32-.23c0-.08-2.81-8.09-5.29-13.71a.33.33 0 01.61-.27c2.49 5.64 5.29 13.68 5.32 13.76a.33.33 0 01-.21.43zM469.48 271.5a.34.34 0 01-.3-.19 101.42 101.42 0 01-5.44-13.79.35.35 0 01.22-.42.34.34 0 01.42.22 99.93 99.93 0 005.4 13.69.33.33 0 01-.15.45A.42.42 0 01469.48 271.5zM467.25 276.19A.36.36 0 01467 276a43.57 43.57 0 01-4.67-11.49.33.33 0 01.24-.41.35.35 0 01.41.25 43 43 0 004.59 11.29.34.34 0 01-.11.47A.34.34 0 01467.25 276.19zM402.58 356.5c-1.92-.19-4.22-.79-4.52-1.77-.18-.6.28-1.15 1.39-1.63 2.28-1 5.17-.92 7.72-.86 1.87 0 3.64.08 4.51-.37a.35.35 0 11.33.62c-1 .54-2.81.5-4.86.45-2.48-.05-5.28-.12-7.42.81-.86.37-1 .66-1 .77.24.76 4.16 1.62 5.92 1.29a.35.35 0 01.41.28.35.35 0 01-.28.41A8.83 8.83 0 01402.58 356.5z" style="mix-blend-mode:multiply" fill="#fabba8" class="colorfabba8 svgShape"/><path fill="#d6c9c1" d="M522.11 276.49a1 1 0 01-.8-.41c-1.43-2 6.22-18.07 9.9-23.45a.76.76 0 011-.19.76.76 0 01.2 1.05c-4 5.88-9.25 17.91-9.83 21.16a28.85 28.85 0 002.71-2.41c2.54-2.43 4.94-4.73 6.67-3.79a6.37 6.37 0 012.92 4.11.74.74 0 01-.59.88.76.76 0 01-.89-.6 4.93 4.93 0 00-2.17-3.07c-.75-.41-3.45 2.18-4.9 3.57s-3 2.83-4 3.11A1.55 1.55 0 01522.11 276.49zM543.07 289.6a1.11 1.11 0 01-.82-.38c-.76-.85-.61-3.1-.07-8a30.21 30.21 0 00.34-5.41c-.16-.75-.54-.88-.67-.93a2.37 2.37 0 00-2 .51.75.75 0 11-1-1.17 3.8 3.8 0 013.45-.76 2.53 2.53 0 011.64 2 27.52 27.52 0 01-.32 5.88c-.23 2.16-.61 5.65-.36 6.68 2.17-.65 13.4-7 18-11.35a.75.75 0 111 1.1C557.91 282 545.08 289.6 543.07 289.6zM567.33 272.13a.7.7 0 01-.47-.17.75.75 0 01-.12-1.06c3.48-4.3 7-12.67 7.07-12.75a.76.76 0 011.39.59c-.15.35-3.67 8.64-7.28 13.11A.74.74 0 01567.33 272.13zM576.08 272.16a.75.75 0 01-.44-1.37c14.77-10.53 22.13-4.87 22.44-4.63a.76.76 0 01-1 1.18c-.06 0-6.85-5.13-20.61 4.68A.72.72 0 01576.08 272.16zM538.06 330.07a.76.76 0 01-.74-.61 3.69 3.69 0 011.35-3.76 3.06 3.06 0 012-.61 1.79 1.79 0 01.38-.68 1.94 1.94 0 011.38-.63L567.51 283a.74.74 0 011-.25.75.75 0 01.25 1l-25.3 41.16a.75.75 0 01-.69.36.84.84 0 00-.63.13.7.7 0 00-.09.5.75.75 0 01-.31.74.73.73 0 01-.79.05 1.39 1.39 0 00-1.41.22 2.12 2.12 0 00-.76 2.25.76.76 0 01-.6.88z" class="colord6c9c1 svgShape"/><path fill="#d6c9c1" d="M541.59,354a.72.72,0,0,1-.35-.08.76.76,0,0,1-.32-1c2.51-4.78,3-16.12-2-23a.76.76,0,1,1,1.23-.88c5.36,7.45,4.82,19.34,2.07,24.58A.75.75,0,0,1,541.59,354Z" class="colord6c9c1 svgShape"/><path fill="#d6c9c1" d="M547,351.22a.79.79,0,0,1-.29-.06.76.76,0,0,1-.41-1c1.86-4.46,2.56-14.39-3.42-22a.76.76,0,0,1,1.19-.93c5.69,7.26,6.11,17.55,3.63,23.54A.76.76,0,0,1,547,351.22Z" class="colord6c9c1 svgShape"/><path fill="#d6c9c1" d="M588.87,321a.75.75,0,1,0-1.16-1c-.06.07-6.34,7.55-22.69,21.3s-21,14.78-29.11,13.81a.76.76,0,0,0-.18,1.5,34.86,34.86,0,0,0,4.2.3c6.37,0,12.08-2.7,26.06-14.45,6.3-5.29,11.11-9.67,14.66-13.06A14.43,14.43,0,0,0,588.3,326a.77.77,0,0,0,0-1.07.76.76,0,0,0-1.07,0,12.18,12.18,0,0,1-4.54,2.56C587,323.23,588.84,321,588.87,321Z" class="colord6c9c1 svgShape"/><path fill="#a72123" d="M534.82,302.54h0a1.59,1.59,0,0,1-1.25-.68c-1.5-1.87-2.14-7.88-1.23-15.88-1.64,3.7-4,7.22-7.17,7.22h-.08c-1.7,0-2.31-.84-2.53-1.51-1.13-3.47,6.26-11.87,11.84-16.13l.72-.55.28.85c.2.6,4.82,14.65,2,23.31C536.68,301.44,535.83,302.54,534.82,302.54Zm0-24c-2.49,11.83-1.79,20.62-.29,22.49.14.17.22.2.25.2s.61-.1,1.37-2.47C538.22,292.53,536.05,282.92,534.86,278.56Zm-1.14-.81c-5.63,4.74-10.63,11.43-9.94,13.54.05.15.2.6,1.33.62C529.35,291.91,532.55,282.81,533.72,277.75Z" class="colora72123 svgShape"/><path fill="#a72123" d="M527.13,304.27h0a.53.53,0,0,1-.51-.55,49.38,49.38,0,0,1,5.09-18,.53.53,0,0,1,.95.48,48,48,0,0,0-5,17.54A.53.53,0,0,1,527.13,304.27Z" class="colora72123 svgShape"/><path fill="#a72123" d="M532.64,313.11a.53.53,0,0,1-.52-.41,81.09,81.09,0,0,1-.39-25.49.54.54,0,0,1,.6-.45.53.53,0,0,1,.45.6,80.56,80.56,0,0,0,.37,25.12.52.52,0,0,1-.4.62Z" class="colora72123 svgShape"/><path fill="#febe30" d="M499.06,459.65l30.72-.58a15.87,15.87,0,0,0,15.29-12.14l4.64-20.29c5.35-23.34,25.33-40.85,49.8-43.65l24-2.74a21.06,21.06,0,0,0,17.85-14.55L654.48,323l6.46,3.82L612.32,462.65,497.8,465.29Z" class="colorfebe30 svgShape"/><path fill="#c3932c" d="M499.06,460.47h0l30.71-.58a16.67,16.67,0,0,0,16.1-12.78l4.65-20.29c5.26-23,25-40.26,49.07-43l24-2.74a21.88,21.88,0,0,0,18.56-15.12l13.15-42.66a.82.82,0,0,0-.57-1,.85.85,0,0,0-1.05.55l-13.15,42.66a20.21,20.21,0,0,1-17.14,14l-24,2.74c-24.8,2.84-45.1,20.63-50.52,44.29l-4.65,20.28a15,15,0,0,1-14.48,11.5l-30.72.58a.82.82,0,1,0,0,1.64Z" class="colorc3932c svgShape"/><path fill="#4d2018" d="M380.72,591.27c1.81.43,63.94-.51,64.7-.51.68-3.26-.48-8.65-1.76-13-7.49,2.18-27.65,7.17-45.75,4C388.35,586.63,379.83,591.05,380.72,591.27Z" class="color4d2018 svgShape"/><path d="M431.26 579.54a7.83 7.83 0 01-3.56-1.42.33.33 0 01-.08-.46.35.35 0 01.46-.08c1.93 1.32 3.84 1.69 5.13 1s1.89-2.41 1.79-4.91a.35.35 0 01.32-.35.32.32 0 01.34.31c.14 3.49-1.09 4.93-2.14 5.51A3.86 3.86 0 01431.26 579.54zM512.4 557.7a7.69 7.69 0 01-3 2.41A.33.33 0 01509 560a.33.33 0 01.15-.44c2.1-1 3.35-2.53 3.36-4s-1.17-2.83-3.41-4a.34.34 0 01-.14-.45.32.32 0 01.43-.15c3.12 1.59 3.76 3.36 3.76 4.57A3.86 3.86 0 01512.4 557.7z" style="mix-blend-mode:multiply" fill="#fabba8" class="colorfabba8 svgShape"/><path fill="#4d2018" d="M499.92,586.38c-2.51.18-5.85.14-7.68-.55a26.31,26.31,0,0,0-8.81,6.06l23.82-.19L532,559c-2.62-2.77-9.12-7.89-12.84-9.06-2.29,8.33-11.77,27.11-15.16,33.67A5,5,0,0,1,499.92,586.38Z" class="color4d2018 svgShape"/><path fill="#f47a50" d="M373.06,478.57c5.34,18.54,20.52,31.08,21.36,30.81,1.13-.55,68.86-57,68.86-57-6.46-3.81-20.52-3.27-40.75,4.91s-30.64,5.73-32.32,4.09S373.06,478.57,373.06,478.57Z" class="colorf47a50 svgShape"/><path fill="#4d2018" d="M392.32,489.61a33.91,33.91,0,0,0-13.11,2.76c6.47,10.67,14.6,17.21,15.21,17,1.13-.55,68.86-57,68.86-57-6.46-3.81-20.52-3.27-40.75,4.91a75.83,75.83,0,0,1-20.46,5.53c-.53,3.94,7,6.27,7.67,8.51C410.58,474.07,401.59,489.61,392.32,489.61Z" class="color4d2018 svgShape"/><path fill="#8f3a2c" d="M458.65 450.69c-5.31 4.43-60.71 50.58-67.72 56.1 1.92 1.75 3.26 2.67 3.49 2.59 1.13-.55 68.86-57 68.86-57A15.59 15.59 0 00458.65 450.69zM410.58 470.66a.82.82 0 01-.12-1.63 92.94 92.94 0 0032.69-11.33.87.87 0 011.17.25.81.81 0 01-.25 1.13 95.11 95.11 0 01-33.36 11.57zM415.26 463.88a1.37 1.37 0 11-1.37-1.33A1.36 1.36 0 01415.26 463.88zM428 459.38a1.37 1.37 0 11-1.37-1.33A1.35 1.35 0 01428 459.38zM442.87 454.29A1.37 1.37 0 11441.5 453 1.34 1.34 0 01442.87 454.29z" class="color8f3a2c svgShape"/><path fill="#8f3a2c" d="M413.85 464.05a.42.42 0 01-.41-.32 19.47 19.47 0 01-.47-4.3.42.42 0 01.44-.39.43.43 0 01.41.42 19.2 19.2 0 00.44 4.09.41.41 0 01-.32.49zM426.6 459.86a.43.43 0 01-.41-.32 19.09 19.09 0 01-.46-4.3.4.4 0 01.43-.39.41.41 0 01.41.42 18.24 18.24 0 00.45 4.09.42.42 0 01-.32.49zM441.67 455.36a.43.43 0 01-.41-.32 19.74 19.74 0 01-.46-4.3.41.41 0 01.43-.39.41.41 0 01.41.42 18.24 18.24 0 00.45 4.09.42.42 0 01-.32.49z" class="color8f3a2c svgShape"/><path d="M393.09,483.36a10.26,10.26,0,0,1-4.77-1.37.39.39,0,0,1-.17-.55.43.43,0,0,1,.58-.16c2.66,1.44,5.17,1.67,6.7.63s2.05-3.23,1.53-6.34a.4.4,0,0,1,.35-.47.41.41,0,0,1,.48.34c.72,4.35-.62,6.28-1.87,7.14A5,5,0,0,1,393.09,483.36Z" style="mix-blend-mode:multiply" fill="#fabba8" class="colorfabba8 svgShape"/><polygon fill="#4f4f4f" points="157.78 557.91 74.03 577.27 74.03 590.63 89.21 590.63 89.21 583.82 160.03 576.18 157.78 557.91" class="color4f4f4f svgShape"/><polygon fill="#4f4f4f" points="169.03 557.91 252.78 577.27 252.78 590.63 237.6 590.63 237.6 583.82 166.78 576.18 169.03 557.91" class="color4f4f4f svgShape"/><rect width="17.6" height="104.51" x="155.54" y="485.93" fill="#5e5e5e" class="color5e5e5e svgShape"/><polygon fill="#4f4f4f" points="183.5 488.52 145.14 488.52 140.08 467.66 188.56 467.66 183.5 488.52" class="color4f4f4f svgShape"/><path fill="#febe30" d="M147.39,283.07H58.76C45,283.07,35.1,296,39.13,308.79L85.26,455.42a22.11,22.11,0,0,0,21.22,15.24H246.31a12.74,12.74,0,0,0,12.93-12.54V421.58s-102.3-50.17-100.05-54S147.39,283.07,147.39,283.07Z" class="colorfebe30 svgShape"/><path fill="#de6445" d="M268,279.79l22.21,30.54s37.66-9.27,44.12-15.81,16.79-21.54,22.48-21.95,12.65-9.41,13.07-10.84,6.33,3.07,2.53,7.36-1.47,7.36,3.37,8,24.88,2.45,27.41,4.91-.85,4.09-3.52,4.09-8.71-.82-8.85.27a13,13,0,0,1-2.39,6.27c.14,2.59-3.09,5-3.09,5,0,1.78-5.9,6.28-13.21,6.68s-21.5-2.18-25.43,1.78-49.61,47-52.42,48-6.32,1.63-8.85.54-23.89-17.18-24.45-17.72-27.69-26.59-27.69-26.59,11.53-28.63,12.37-28.63S268,279.79,268,279.79Z" class="colorde6445 svgShape"/><path d="M233.24,310.33l13.42,12.88c3.55-4.8,18.4-25.65,22-42.52l-.15-.2-23.19,1.64C243.19,285.63,233.24,310.33,233.24,310.33Z" style="mix-blend-mode:multiply" fill="#fabba8" class="colorfabba8 svgShape"/><path fill="#de6445" d="M286.68,553.55c-8.34,17.46-5.18,36.56-4.36,36.89,1.22.29,90.51,0,90.51,0-2.37-7-13.42-15.41-34.29-21.93s-27.14-14.93-27.33-17.24S286.68,553.55,286.68,553.55Z" class="colorde6445 svgShape"/><path fill="#4d2018" d="M293.94,574.07a33.33,33.33,0,0,0-11.82-6.16c-2.22,12.19-.4,22.29.2,22.53,1.22.29,90.51,0,90.51,0-2.37-7-13.42-15.41-34.29-21.93a75.48,75.48,0,0,1-19.27-8.67c-3,2.66,1.12,9.16.15,11.3C318.24,573.75,301,579.91,293.94,574.07Z" class="color4d2018 svgShape"/><path fill="#8f3a2c" d="M370.44 586.23c-7 0-80 .25-89.05 0 .3 2.54.7 4.08.93 4.17 1.22.29 90.51 0 90.51 0A14.43 14.43 0 00370.44 586.23zM320.51 571.15a.79.79 0 01-.16-1 .86.86 0 011.16-.26 93.19 93.19 0 0032.45 12 .82.82 0 11-.22 1.62 95.2 95.2 0 01-33.13-12.19zM328.61 568.94a1.4 1.4 0 01-1.93.15 1.31 1.31 0 01-.16-1.88 1.4 1.4 0 011.93-.15A1.31 1.31 0 01328.61 568.94zM341.32 573.54a1.39 1.39 0 01-1.93.15 1.29 1.29 0 01-.16-1.87 1.4 1.4 0 011.94-.15A1.3 1.3 0 01341.32 573.54zM356 579a1.39 1.39 0 01-1.93.15 1.31 1.31 0 01-.16-1.88 1.4 1.4 0 011.93-.14A1.29 1.29 0 01356 579z" class="color8f3a2c svgShape"/><path fill="#8f3a2c" d="M327.42 568.18a.41.41 0 01-.1-.5 20 20 0 012.52-3.56.44.44 0 01.6 0 .4.4 0 010 .58 19.49 19.49 0 00-2.39 3.39.42.42 0 01-.57.17zM339.93 573a.4.4 0 01-.1-.5 20 20 0 012.52-3.56.44.44 0 01.6 0 .4.4 0 010 .58 18.89 18.89 0 00-2.39 3.39.43.43 0 01-.57.17zM354.41 579.09a.39.39 0 01-.1-.5 18.78 18.78 0 012.52-3.57.42.42 0 01.59 0 .41.41 0 010 .58 19.2 19.2 0 00-2.4 3.39.43.43 0 01-.57.17z" class="color8f3a2c svgShape"/><path d="M298.71,569.8a9.81,9.81,0,0,1-2.72-4,.41.41,0,0,1,.25-.53.42.42,0,0,1,.54.24c1.07,2.77,2.82,4.53,4.69,4.7s3.71-1.17,5.4-3.86a.42.42,0,0,1,.58-.14.4.4,0,0,1,.14.56c-2.37,3.77-4.68,4.39-6.2,4.25A4.85,4.85,0,0,1,298.71,569.8Z" style="mix-blend-mode:multiply" fill="#fabba8" class="colorfabba8 svgShape"/><path fill="#504843" d="M197,445.58s70-.82,65.34,1.63-1.68,3.27,2.53,4.09,2.53.41.42,4.09,15.6,104.3,15.6,104.3c16.44.82,40.89-3.27,40.89-3.27l3.52-101.3s6.18-35.72,4.49-41S307,390.36,307,390.36s-93.21-33.48-94.48-31.84S197,445.58,197,445.58Z" class="color504843 svgShape"/><path fill="#6f625c" d="M119.84,391c-4.77,23.18,3.94,58.35,37.38,63.26s111.86-29.17,129.56-37.9,27.83-9.54,35.13.55,3.38,38.17,3.38,38.17c2.25,4.09,37.1,43.08,37.1,43.08,11-10.09,34.28-43.9,34.28-43.9s-57.33-89.43-62.11-91.89-24.17,0-34.29,1.37-89.09,14.45-91.9,7.63S119.84,391,119.84,391Z" class="color6f625c svgShape"/><path fill="#887771" d="M382.16,474.46C360.48,443.74,330,399,329.78,394.55c-.08-2-.52-3.25-1.39-4-1.05-.88-2.43-.73-3.77-.59a6.72,6.72,0,0,1-3.48-.24c-1.16-.52-1.46-1.45-1.86-2.92-.49-1.85-1.1-4.14-4.87-4.51-3-.29-17.56,2.93-37.69,7.4-18.21,4-40.87,9.06-60.07,12.52-20.32,3.66-33.83,4.1-42.64.67,4.21-2.12,14.33-7.92,16.11-15.42.78-3.29-.15-6.49-2.74-9.51l-1.3,1c2.24,2.61,3,5.34,2.39,8.1-1.79,7.59-13.73,13.64-16.43,14.92-6.39-3.18-10-8.79-11.74-17.16l-1.66.33c4.45,21,19.16,25.69,58.32,18.63,19.23-3.46,41.91-8.49,60.13-12.53,18.47-4.09,34.41-7.63,37.15-7.36s2.94,1.53,3.41,3.29c.4,1.47.84,3.13,2.79,4a8.25,8.25,0,0,0,4.36.38c1.07-.11,2-.21,2.49.2s.75,1.34.81,2.8c.26,6.15,42.82,66.8,53,81.24Z" class="color887771 svgShape"/><path fill="#4d2018" d="M120.12,378.5a63.24,63.24,0,0,0-.28,12.54c33.17,4.64,110.73-20.45,105.39-31.63S120.12,378.5,120.12,378.5Z" class="color4d2018 svgShape"/><path fill="#ffffff" d="M188.7,238.76c-5.06-.14-12.79,3.13-12.79,3.13l.14,1.09s-11.66,0-21.5,6.28-19.81,21.54-20.94,43.08-4.77,42.81-8.71,55.62-13.77,23.18-4.78,30.54C166.78,385,225,363.78,227.2,359.14s6.19-22.09,7.31-27.54,12.86-35.51,12.86-35.51c12.64-3.48,25.5-19.43,25.5-19.43-1.47-.82-13.91-24.13-21.5-27s-19.81-3.47-19.81-3.47c-4.64-2.87-11.17-3.68-11.17-3.68Z" class="colorfff svgShape"/><path fill="#d6c9c1" d="M249.05 285.45a.52.52 0 01-.17 0 .82.82 0 01-.65-1c0-.06 1.2-6-.85-18.52a.82.82 0 01.7-.94.84.84 0 011 .68c2.11 12.88.89 18.86.84 19.11A.83.83 0 01249.05 285.45zM235.35 328.19a1 1 0 01-.33-.06.8.8 0 01-.44-1.07c.09-.22 9.49-21.76 12.39-34a.84.84 0 011-.61.82.82 0 01.63 1c-2.93 12.4-12.39 34.07-12.48 34.28A.84.84 0 01235.35 328.19z" class="colord6c9c1 svgShape"/><path fill="#ffffff" d="M242,216.88s-.14-1-.38-2.58c-.73-.38-9-.67-13.32.69S242,216.88,242,216.88Z" class="colorfff svgShape"/><path d="M230.9,214.42a3.14,3.14,0,0,0,.25,1l9-.56s-4.21-.24-3.62-.88A42.21,42.21,0,0,0,230.9,214.42Z" style="mix-blend-mode:multiply" fill="#e0e0e0" class="colore0e0e0 svgShape"/><path fill="#ffffff" d="M241.82,208.15s.07,1,.17,2.61c-.63.51-8.64,2.45-13.17,2S241.82,208.15,241.82,208.15Z" class="colorfff svgShape"/><path d="M238,211.88c-2.08.26-1.31-.07,1.35-1.76l-5.89.2-.1,0c-.38.2-2.5,1.53-2.5,1.84a1.62,1.62,0,0,0,.28.61,41.62,41.62,0,0,0,6.94-.93Z" style="mix-blend-mode:multiply" fill="#e0e0e0" class="colore0e0e0 svgShape"/><path fill="#4d2018" d="M175.17,184.22c-1.79-6.23,1.16-10.22,1.37-2,3.17-10.23,15-11.55,26.77-14.11s16.44-6,20-5.83,5.27,4.6,1.58,8.28a11.26,11.26,0,0,1,3,14.93c-2.74,4.09-11.28,28.12-11.49,29.76S205.32,227.07,203,229.52s-11.39,4.19-11.39,4.19c-1.47.21-2.74-.81-3.26-6.64s-12.65-14.52-16.55-22.4S172.75,186.78,175.17,184.22Z" class="color4d2018 svgShape"/><path fill="#f47a50" d="M225.08,238.47c-.62,2.86-1.27,5.34.37,6.49.42.41,2.21,7.26.52,9.1s-2.21,4.09-2.53,8-2.95,3.06-5.58-2.46-5.06-2-13.49-2.66-18.55-16.15-18.55-16.15a13.93,13.93,0,0,0,6-9.72c1.58.31,2.74-1.63,3.16-11.24,0,0,3.16-8,9.17-10s5.9-6.14,1.16-12.58-4.54-7.46-2.43-10.22,1.37-6.45-6-9.82c7.17-3.38,21.5-5.32,23.51-4.3s10,9.21,10.33,11.46,1.79,8.18,2.74,8.69,9.74,3.37,10.27,5-3.42,4.6-2.48,6.59,2.27,2.61,2,3.53-8.33,4.45-13.12,5.16c4.79,2.2,10.8,1.28,11.8,1.64s.79,2.05.16,3-.9,2.55.26,5.21.58,4.35-.89,6.29c-.68.89-4.13,1.41-8.12,1.84A9.39,9.39,0,0,0,225.08,238.47Z" class="colorf47a50 svgShape"/><path d="M211.89 228a.41.41 0 01-.16 0c-4.13-1.63-4.86-5.21-5.62-9-.25-1.22-.51-2.49-.88-3.73a.41.41 0 01.28-.51.43.43 0 01.53.28c.38 1.28.64 2.56.89 3.8.76 3.73 1.41 7 5.11 8.41a.41.41 0 01.24.53A.43.43 0 01211.89 228zM241.09 218.16c-1.3 0-2.65 0-4 .15a.41.41 0 00-.38.44.43.43 0 00.47.37c1.32-.13 2.65-.13 3.94-.14h.56a3.17 3.17 0 01.3-.82z" style="mix-blend-mode:multiply" fill="#fabba8" class="colorfabba8 svgShape"/><path fill="#f16040" d="M193.05,215.51a7.06,7.06,0,1,0,7.06-6.84A7,7,0,0,0,193.05,215.51Z" class="colorf16040 svgShape"/><path d="M200.11,210.58a5,5,0,0,1,1.78.32l.11,0a5,5,0,0,1,3.2,4.58.41.41,0,0,1-.42.41.41.41,0,0,1-.41-.41,4.12,4.12,0,0,0-2.66-3.82,3.37,3.37,0,1,0,.09,6.74.41.41,0,1,1,0,.81,4.25,4.25,0,0,1-4.31-4.18,4.19,4.19,0,0,1,2.22-3.66,4.19,4.19,0,0,0-3.85,4.11.41.41,0,0,1-.42.41.41.41,0,0,1-.41-.41A5,5,0,0,1,200.11,210.58Z" style="mix-blend-mode:multiply" fill="#fabba8" class="colorfabba8 svgShape"/><path fill="#4d2018" d="M221.39 194.71a21 21 0 016.27-7.32C224.76 184.53 221.07 185.45 221.39 194.71zM225 185a5.1 5.1 0 012.79 2.2C228 184.63 226.16 184.4 225 185z" class="color4d2018 svgShape"/><path d="M236.49,206.54a2.53,2.53,0,0,1-1.68-.64,2.69,2.69,0,0,1-.66-2.78.35.35,0,0,1,.41-.25.33.33,0,0,1,.25.4,2.09,2.09,0,0,0,.46,2.16,1.84,1.84,0,0,0,1.67.39.33.33,0,0,1,.42.22.31.31,0,0,1-.22.4A2.05,2.05,0,0,1,236.49,206.54Z" style="mix-blend-mode:multiply" fill="#fabba8" class="colorfabba8 svgShape"/><path fill="#4d2018" d="M239.07 202.75c.13.15-.33.73-1 1.3s-1.36.92-1.49.77.34-.72 1-1.29S239 202.61 239.07 202.75zM228.84 195.79c.56 1.12.4 2.33-.37 2.69s-1.85-.25-2.41-1.38-.4-2.33.36-2.69S228.27 194.66 228.84 195.79z" class="color4d2018 svgShape"/><path d="M238.73,230.44c-8.12,1.74-16.34.51-18.13-.2s-3.37,8.69,1.47,11.55a3.24,3.24,0,0,0,2.36.28,27.73,27.73,0,0,1,.65-3.6,9.39,9.39,0,0,1,8.27-7.21c2-.21,3.87-.45,5.32-.75Z" style="mix-blend-mode:multiply" fill="#fabba8" class="colorfabba8 svgShape"/><path fill="#4d2018" d="M227.92 199.52h-.12a3.07 3.07 0 01-2.54-1.58.24.24 0 01.08-.34.27.27 0 01.35.09 2.59 2.59 0 002.13 1.34 1.77 1.77 0 001.38-.44.25.25 0 01.35-.05.23.23 0 01.06.34A2.18 2.18 0 01227.92 199.52zM206.05 211.08a.41.41 0 01-.37-.22.4.4 0 01.18-.55 10.87 10.87 0 003.85-2.93.42.42 0 01.58-.11.39.39 0 01.12.56 11.37 11.37 0 01-4.16 3.21A.48.48 0 01206.05 211.08zM207.11 212.56a.43.43 0 01-.38-.22.41.41 0 01.19-.55 10.63 10.63 0 003.84-2.93.43.43 0 01.59-.11.4.4 0 01.11.57 11.29 11.29 0 01-4.16 3.2A.43.43 0 01207.11 212.56zM208 213.82a.43.43 0 01-.38-.23.41.41 0 01.19-.55 10.5 10.5 0 003.84-2.93.45.45 0 01.59-.11.42.42 0 01.12.57 11.28 11.28 0 01-4.17 3.2A.45.45 0 01208 213.82z" class="color4d2018 svgShape"/><path fill="#f47a50" d="M204.58,287.7,167.9,319.6c2.95,2.66,59.23,35.59,63.24,36s8.85-.21,11.17-2.66,70.61-42.95,75-47.24c10.75-1.84,15-5.52,19.81-11.66s9.49-12.75,7.38-13.16a5,5,0,0,0-3.51.55c3.09-4.77,7.87-14.45,3.93-15.13,1.12-5.32-.7-7.09-2.95-5.05s-9.42,13.64-8.85,10,8.15-11.18,7-13-4.21,0-6.32,2.87-12.93,15.81-13.21,13.36,2-6.55.42-9.41-4.92-3.82-5.34-2.32,1.27,5.86-2.11,10.64-7.72,9.81-8,13.49-.28,7.23-2.53,8.18-58,15.82-70,21.14C219.75,303,204.58,287.7,204.58,287.7Z" class="colorf47a50 svgShape"/><path d="M232.48 354.19a10.32 10.32 0 01-4.78-1.37.4.4 0 01-.16-.56.42.42 0 01.57-.16c2.66 1.44 5.17 1.67 6.71.63s2-3.22 1.52-6.34a.41.41 0 01.35-.47.42.42 0 01.48.34c.73 4.36-.62 6.29-1.87 7.14A4.92 4.92 0 01232.48 354.19zM328.1 278.6h0a.41.41 0 01-.4-.42 1.76 1.76 0 00-1.38-1.69.41.41 0 01-.3-.5.43.43 0 01.52-.29 2.57 2.57 0 012 2.51A.42.42 0 01328.1 278.6zM331.89 283.3h0a.41.41 0 01-.41-.42 1.76 1.76 0 00-1.38-1.69.41.41 0 11.23-.78 2.55 2.55 0 012 2.5A.4.4 0 01331.89 283.3zM334 288.32h0a.42.42 0 01-.41-.43 1.76 1.76 0 00-1.38-1.69.4.4 0 01-.29-.5.41.41 0 01.51-.28 2.56 2.56 0 012 2.5A.42.42 0 01334 288.32zM337.91 278a.39.39 0 01-.3-.13.39.39 0 010-.57 29.56 29.56 0 006.69-10.78.43.43 0 01.53-.26.41.41 0 01.27.51 29.69 29.69 0 01-6.9 11.11A.44.44 0 01337.91 278zM177.53 325.73c10.34-9.14 23.52-23.21 27.05-38L167.9 319.6C168.6 320.23 172.27 322.55 177.53 325.73z" style="mix-blend-mode:multiply" fill="#fabba8" class="colorfabba8 svgShape"/><path fill="#d6c9c1" d="M180.27 263.16a.85.85 0 01-.66-.3c-6.23-7.53-20.23-9.49-30.57-4.29a.86.86 0 01-1.14-.35.81.81 0 01.36-1.1c11.19-5.64 25.85-3.52 32.66 4.71a.8.8 0 01-.12 1.15A.89.89 0 01180.27 263.16zM188.56 261.22A.85.85 0 01188 261a44 44 0 01-10.66-14 .8.8 0 01.41-1.09.85.85 0 011.12.39 43.06 43.06 0 0010.21 13.42.8.8 0 01.11 1.15A.85.85 0 01188.56 261.22zM206.9 277.37a.89.89 0 01-.5-.15c-.45-.32-11-7.79-14.09-11.83a.81.81 0 01.17-1.15.86.86 0 011.18.17c2.43 3.17 10.11 8.86 12.8 10.81.22-.76.5-1.76.8-2.87 2.09-7.61 3.87-13.5 6.22-14.26a3.14 3.14 0 012.54.2 5.58 5.58 0 012.24 3.48.82.82 0 01-.65 1 .85.85 0 01-1-.64 4.06 4.06 0 00-1.43-2.39 1.42 1.42 0 00-1.17-.07c-1.67.54-4.09 9.37-5.12 13.13-.51 1.87-.91 3.34-1.21 4.08a.8.8 0 01-.54.49A1 1 0 01206.9 277.37zM234.09 266.33l-.21 0a.83.83 0 01-.55-.45c-.9-1.84-4.76-7.23-6.74-7.35-.19 0-.4 0-.64.39a.87.87 0 01-1.17.25.81.81 0 01-.26-1.13 2.33 2.33 0 012.18-1.15c2.53.16 5.61 4.25 7.18 6.66a36.56 36.56 0 00-.1-5.72.81.81 0 01.76-.88.83.83 0 01.91.74c.31 3.38.41 7.6-.87 8.5A.8.8 0 01234.09 266.33zM222.28 301.4h0a.82.82 0 01-.81-.85c0-.16.62-16.12-.42-33.66a.84.84 0 011.68-.09c1.05 17.62.43 33.66.43 33.82A.83.83 0 01222.28 301.4zM227.13 279.32a2.76 2.76 0 112.85-2.76A2.8 2.8 0 01227.13 279.32zM164.25 323.42a.88.88 0 01-.42-.11c-2.72-1.52-11.17-8.92-11.53-9.23a.81.81 0 01-.06-1.16.87.87 0 011.19-.06c.08.07 7.72 6.76 10.74 8.73 4.22-3.47 35.28-29.19 42.25-37.26a107 107 0 00-14.35-12.53.8.8 0 01-.19-1.14.85.85 0 011.17-.19 108.32 108.32 0 0115.1 13.27.8.8 0 010 1.06c-6.44 8-41.89 37.19-43.4 38.43A.83.83 0 01164.25 323.42z" class="colord6c9c1 svgShape"/><path fill="#b5b6dc" d="M156.15,318.07a14.21,14.21,0,0,1-4.06-.66.38.38,0,1,1,.22-.72,10.65,10.65,0,0,0,5.17.5.38.38,0,0,1,.46.28.37.37,0,0,1-.27.45A5.91,5.91,0,0,1,156.15,318.07Z" class="colorb5b6dc svgShape"/><path d="M376.58 302.56h-.07c-5.09-.78-6.63-2.58-7-3.95a3.69 3.69 0 011.24-3.66 3.36 3.36 0 01-1-3.15 3.61 3.61 0 012.59-2.67 2.67 2.67 0 01-.53-2.25 3.49 3.49 0 012.29-2.71c2-.45 15.58 1 16.16 1.08a.42.42 0 01.37.45.41.41 0 01-.47.36c-3.89-.42-14.31-1.44-15.88-1.1a2.74 2.74 0 00-1.64 2.07 1.81 1.81 0 00.8 2 .4.4 0 01-.16.74 3 3 0 00-2.7 2.22 2.48 2.48 0 001 2.62.42.42 0 01.19.32.4.4 0 01-.15.34 3.07 3.07 0 00-1.34 3.15c.45 1.61 2.7 2.8 6.33 3.36a.4.4 0 01.35.47A.41.41 0 01376.58 302.56zM367.73 299.36a.43.43 0 01-.39-.24s-2-4.19-5.49-5.87a.43.43 0 01-.22-.24.42.42 0 010-.31c0-.11 5.57-10.6 5.36-15.82a.42.42 0 01.41-.43.42.42 0 01.44.4c.19 4.93-4.28 13.92-5.27 15.86a14.92 14.92 0 015.51 6.07.4.4 0 01-.21.54A.38.38 0 01367.73 299.36z" style="mix-blend-mode:multiply" fill="#fabba8" class="colorfabba8 svgShape"/><path d="M387.54 292.58h-.05A91.74 91.74 0 01374.1 290a.4.4 0 01-.28-.51.42.42 0 01.53-.27 90.62 90.62 0 0013.24 2.51.42.42 0 01.37.45A.43.43 0 01387.54 292.58zM384.34 297.82h0c-.29 0-7.17-.12-12-2.11a.4.4 0 01-.22-.53.42.42 0 01.55-.22c4.65 1.92 11.58 2.05 11.65 2.05a.41.41 0 110 .81z" style="mix-blend-mode:multiply" fill="#fabba8" class="colorfabba8 svgShape"/><path fill="#febe30" d="M214.56,458.39l-30.72-.58a15.86,15.86,0,0,1-15.29-12.14l-4.65-20.29c-5.35-23.34-25.32-40.85-49.8-43.65l-24-2.74a21,21,0,0,1-17.84-14.54L59.14,321.79l-6.47,3.81,48.62,135.79,118.89,3.82Z" class="colorfebe30 svgShape"/><path fill="#c3932c" d="M214.56,459.21h0l-30.72-.58a16.65,16.65,0,0,1-16.09-12.78l-4.65-20.29c-5.26-23-25-40.26-49.08-43l-24-2.74a21.88,21.88,0,0,1-18.55-15.13L58.33,322a.82.82,0,0,1,.57-1,.84.84,0,0,1,1,.55l13.15,42.66a20.21,20.21,0,0,0,17.14,14l24,2.74c24.8,2.84,45.11,20.63,50.52,44.29l4.65,20.29A15,15,0,0,0,183.85,457l30.72.58a.82.82,0,1,1,0,1.64Z" class="colorc3932c svgShape"/><rect width="2" height="12.07" x="163.26" y="472.06" fill="#363636" rx=".88" class="color363636 svgShape"/><rect width="2" height="12.07" x="163.64" y="563.26" fill="#363636" rx=".88" transform="rotate(90 164.64 569.29)" class="color363636 svgShape"/><rect width="325.27" height="12.59" x="213.8" y="357.13" fill="#4d2018" class="color4d2018 svgShape"/><path fill="#f16040" d="M471.49,97.38a7.06,7.06,0,1,1-9.57-2.25A7,7,0,0,1,471.49,97.38Z" class="colorf16040 svgShape"/><path d="M462.9,96.77A5.25,5.25,0,0,0,461.53,98l-.07.08a5,5,0,0,0-.4,5.57.43.43,0,0,0,.57.14.42.42,0,0,0,.15-.56,4.14,4.14,0,0,1,.32-4.65,3.37,3.37,0,1,1,3.38,5.83.41.41,0,1,0,.41.7,4.26,4.26,0,0,0,1.56-5.8,4.18,4.18,0,0,0-3.79-2,4.19,4.19,0,0,1,5.42,1.55.42.42,0,0,0,.72-.43A5,5,0,0,0,462.9,96.77Z" style="mix-blend-mode:multiply" fill="#fabba8" class="colorfabba8 svgShape"/><path fill="#f16040" d="M571.92,214.38a7.06,7.06,0,1,1-7.06-6.85A7,7,0,0,1,571.92,214.38Z" class="colorf16040 svgShape"/><path d="M564.86,209.45a5.2,5.2,0,0,0-1.78.31l-.1,0a5,5,0,0,0-3.21,4.58.41.41,0,0,0,.42.4.4.4,0,0,0,.41-.4,4.14,4.14,0,0,1,2.66-3.82,3.37,3.37,0,1,1-.09,6.74.4.4,0,1,0,0,.8,4.25,4.25,0,0,0,4.31-4.18,4.16,4.16,0,0,0-2.22-3.65,4.18,4.18,0,0,1,3.85,4.11.42.42,0,0,0,.84,0A5,5,0,0,0,564.86,209.45Z" style="mix-blend-mode:multiply" fill="#fabba8" class="colorfabba8 svgShape"/><path fill="#4d2018" d="M426.66,103.14c4.1-3.2,6-2.19,6-2.19C432.33,97,427.7,96.15,426.66,103.14Z" class="color4d2018 svgShape"/><path fill="#4d2018" d="M431.27 97.37a5.1 5.1 0 011.58 3.19C434.19 98.3 432.6 97.29 431.27 97.37zM451.33 100.68c-5-1.55-11.39-.71-11.39-.71C439.89 95.9 444.89 94 451.33 100.68z" class="color4d2018 svgShape"/><path fill="#4d2018" d="M440.09,96.42a5.12,5.12,0,0,0-.35,3.54C437.69,98.32,438.83,96.81,440.09,96.42Z" class="color4d2018 svgShape"/><path d="M442.55,118.65a2,2,0,0,0,.6-1.28,2.12,2.12,0,0,0-1.17-2,.25.25,0,0,0-.36.09.26.26,0,0,0,.07.36,1.63,1.63,0,0,1,.94,1.48,1.46,1.46,0,0,1-.73,1.15.26.26,0,0,0-.12.35.25.25,0,0,0,.35.11A1.58,1.58,0,0,0,442.55,118.65Z" style="mix-blend-mode:multiply" fill="#fabba8" class="colorfabba8 svgShape"/><path fill="#4d2018" d="M439 117.94c0 .15.59.22 1.31.16s1.28-.24 1.27-.39-.59-.22-1.31-.16S439 117.79 439 117.94zM443.07 105.38c.48 1.16 1.5 1.82 2.27 1.48s1-1.57.54-2.73-1.51-1.83-2.28-1.48S442.58 104.21 443.07 105.38z" class="color4d2018 svgShape"/><path fill="#4d2018" d="M446.49 107.12l.08-.09a3.09 3.09 0 00.47-3 .23.23 0 00-.31-.15.24.24 0 00-.17.31 2.61 2.61 0 01-.37 2.5 1.78 1.78 0 01-1.24.75.26.26 0 00-.27.24.24.24 0 00.22.26A2.15 2.15 0 00446.49 107.12zM430.16 107c.49 1.17 1.51 1.83 2.28 1.49s1-1.57.53-2.73-1.5-1.83-2.28-1.48S429.68 105.88 430.16 107z" class="color4d2018 svgShape"/><path fill="#4d2018" d="M433.59,108.79l.08-.09a3.1,3.1,0,0,0,.46-3,.25.25,0,0,0-.31-.16.26.26,0,0,0-.16.32,2.58,2.58,0,0,1-.38,2.49,1.75,1.75,0,0,1-1.23.76.25.25,0,0,0-.27.23.23.23,0,0,0,.22.27A2.19,2.19,0,0,0,433.59,108.79Z" class="color4d2018 svgShape"/><path fill="#4d2018" d="M436.34,119.43a3,3,0,0,1-1.62-.28c-1-.83,1.18-12.76,1.2-12.87.11-.57-.85-2.85-1.57-4.29a.38.38,0,0,1,.17-.51.37.37,0,0,1,.5.17c.31.62,1.85,3.75,1.64,4.77-.32,1.63-1.77,11.07-1.41,12.17.5.24,3.17,0,5.42-.34a.38.38,0,0,1,.43.31.39.39,0,0,1-.31.44A33.59,33.59,0,0,1,436.34,119.43Z" class="color4d2018 svgShape"/><path fill="#6a1d1a" d="M436.57,121.55c7.49,2.2,13.22-4.34,14.26-4.25s-1.13,8.78-7.36,9.82S435,121.08,436.57,121.55Z" class="color6a1d1a svgShape"/><path fill="#922822" d="M450.83,117.3c-.59,0-2.66,2-5.71,3.41a20.07,20.07,0,0,0-3.58,6.47,7.06,7.06,0,0,0,1.93-.06C449.7,126.08,451.87,117.4,450.83,117.3Z" class="color922822 svgShape"/><path fill="#ffffff" d="M437.22,121.72a6.89,6.89,0,0,0,5.54,1.43c2.59-.33,5.59-3.07,6.63-5C447.13,119.7,442.68,123,437.22,121.72Z" class="colorfff svgShape"/><path fill="#ffffff" d="M449.84,120.46c-.57,1.56-2,4-3.68,5s-3.78,1.51-4.44,1.09a13.58,13.58,0,0,1,.71-1.47s-2,.73-2.48,1.76a6.47,6.47,0,0,0,3.52.32c4.81-.8,7.2-6.18,7.56-8.62C450.45,118.46,450.29,119.21,449.84,120.46Z" class="colorfff svgShape"/><path d="M442.57,129a8.6,8.6,0,0,1-2.22-.27.38.38,0,1,1,.19-.73,8.33,8.33,0,0,0,7.47-1.74.38.38,0,1,1,.54.53A8.57,8.57,0,0,1,442.57,129Z" style="mix-blend-mode:multiply" fill="#fabba8" class="colorfabba8 svgShape"/><path fill="#79a9d6" d="M468.54 158.05c-1.34 0-2.78-2.27-5.16-6.21-1.21-2-3.24-5.38-4-5.57-.46.1-.73.64-1.11 1.52s-1.07 2.52-2.91 2.06a.76.76 0 01.36-1.47c.48.12.64 0 1.17-1.19.41-1 .93-2.16 2.29-2.4s2.89 2 5.49 6.27c1.15 1.91 3.06 5.07 3.84 5.45 1.48-1 5-10 5.16-19.49a.78.78 0 01.77-.74.76.76 0 01.74.77c-.18 9.27-3.58 19.61-6.08 20.86A1.2 1.2 0 01468.54 158.05zM440.72 156.67a1.21 1.21 0 01-.57-.15c-1.53-.83-2.17-5.51-1.91-13.91a.76.76 0 01.78-.73.75.75 0 01.73.78c-.25 8 .46 11.73 1 12.43.72-.44 2.39-2.94 3.51-4.62 2.66-4 4.24-6.22 5.7-5.64a2.6 2.6 0 011.74 2c.12.42.15.52.48.64a.75.75 0 11-.48 1.43 2.1 2.1 0 01-1.45-1.67 1.16 1.16 0 00-.78-1c-.76.26-2.76 3.25-3.95 5.05C443.23 154.77 441.9 156.67 440.72 156.67zM451.84 186.69a.76.76 0 01-.76-.74 249.13 249.13 0 012-34.74.77.77 0 01.86-.64.76.76 0 01.64.86 246.41 246.41 0 00-2 34.49.75.75 0 01-.74.77zM455.11 252.53a.76.76 0 01-.75-.67c0-.26-3.14-26.42-2.27-41.3a.75.75 0 01.8-.71.77.77 0 01.71.8c-.87 14.74 2.23 40.77 2.26 41a.76.76 0 01-.66.84z" class="color79a9d6 svgShape"/><path fill="#dbeaf8" d="M449.82 168.44a1.51 1.51 0 11-1.51-1.51A1.51 1.51 0 01449.82 168.44zM360 161.64a1.52 1.52 0 11-1.51-1.51A1.51 1.51 0 01360 161.64zM448.82 229.49a1.51 1.51 0 11-1.51-1.51A1.52 1.52 0 01448.82 229.49z" class="colordbeaf8 svgShape"/><circle cx="446.3" cy="200.79" r="1.51" fill="#dbeaf8" class="colordbeaf8 svgShape"/><path fill="#79a9d6" d="M489.73 176.87a.77.77 0 01-.74-.57c-1.58-6.34-1.4-26.37 13.2-34.82a.75.75 0 011 .27.74.74 0 01-.28 1c-13.84 8-14 27.11-12.48 33.15a.76.76 0 01-.55.92A.55.55 0 01489.73 176.87zM520.64 246.37a32.87 32.87 0 00-12.75-6.59c.13-2.18-1.78-7.51-6.43-19.47-2.24-5.76-4.36-11.2-5.34-14.57a.76.76 0 00-.94-.51.74.74 0 00-.51.93c1 3.44 3.13 8.91 5.38 14.7 2.82 7.24 6.65 17.09 6.37 18.85-2.14 1-2.74 2.47-2 4.86-1.75 3.26-1.39 8-.93 13.94.43 5.64 1 12.66-.32 20.2a.76.76 0 00.62.87h.13a.75.75 0 00.74-.63c1.32-7.72.78-14.84.34-20.57-.43-5.54-.77-10 .63-12.86a.71.71 0 00.09.07 17.9 17.9 0 017.14 7.2.76.76 0 00.69.45.7.7 0 00.31-.07.75.75 0 00.38-1 19.09 19.09 0 00-7.78-7.9.7.7 0 00-.56-.08c-.55-1.75-.27-2.45 1.28-3.17a.58.58 0 00.31.19 31.88 31.88 0 0112.15 6.25.79.79 0 00.52.2.76.76 0 00.51-1.31zM425.53 208.85a.75.75 0 01-.75-.71c0-.11-.74-11.44 1-39.12a.76.76 0 111.51.1c-1.74 27.55-1 38.81-1 38.92a.74.74 0 01-.7.8zM396.73 204.35a.57.57 0 01-.18 0 .75.75 0 01-.55-.91c1.71-6.76-1.16-13.42-1.19-13.49a.76.76 0 011.39-.61c.13.3 3.1 7.22 1.27 14.47A.77.77 0 01396.73 204.35z" class="color79a9d6 svgShape"/><path fill="#79a9d6" d="M404.19 197.83a.75.75 0 01-.65-.37 19.42 19.42 0 00-7.6-7.16.76.76 0 01.64-1.37 20.49 20.49 0 018.26 7.77.75.75 0 01-.65 1.13zM349.37 175.87a.76.76 0 01-.31-1.45c7.53-3.4 12.61-10 13.2-11.65a.75.75 0 011-.46.77.77 0 01.46 1c-.73 2-6.13 9-14 12.52A.82.82 0 01349.37 175.87z" class="color79a9d6 svgShape"/><path d="M332.25 154.31a.38.38 0 01-.14-.73c.18-.07 4.47-1.75 12.49-.3 0-2.71 1.38-12.61 4.08-15.56a.39.39 0 01.54 0 .38.38 0 010 .53c-2.88 3.15-4 14.54-3.88 15.4a.37.37 0 01-.05.32.36.36 0 01-.38.16c-8.08-1.56-12.49.15-12.54.17A.32.32 0 01332.25 154.31zM334.64 139.35a.38.38 0 00-.51-.17 7.9 7.9 0 00-1.89 1.28c-.88-1.14-4.85-6.24-10.47-12.68a.38.38 0 00-.53 0 .37.37 0 000 .53C327 134.88 331 140.05 331.7 141a6.82 6.82 0 00-1.34 2 .36.36 0 00.22.48.31.31 0 00.13 0 .38.38 0 00.35-.25 7.13 7.13 0 013.4-3.44A.38.38 0 00334.64 139.35z" style="mix-blend-mode:multiply" fill="#fabba8" class="colorfabba8 svgShape"/><path fill="#597274" d="M627.65,468.11l1.5-.16c0-.39-4.25-39.39-2.38-65.7l-1.51-.11C623.39,428.59,627.61,467.72,627.65,468.11Z" class="color597274 svgShape"/><path fill="#8c966a" d="M626.89,403c5.48-7.3,1.2-31.12-1.51-26.05C621,385.08,624.06,406.79,626.89,403Z" class="color8c966a svgShape"/><path fill="#658271" d="M625.46,433.71c4.34-23.82-9.8-44.46-25.21-47.26C590.39,415.25,616.25,431.32,625.46,433.71Z" class="color658271 svgShape"/><path d="M600.25,386.45c2.58,16.88,25.21,47.26,25.21,47.26C616.25,431.32,590.39,415.25,600.25,386.45Z" style="mix-blend-mode:multiply" fill="#7ba7a3" class="color7ba7a3 svgShape"/><path fill="#4a5e5f" d="M627.27,458.59c-18.25-15.36-38-43.68-38-43.68C597.94,415.92,621,426.36,627.27,458.59Z" class="color4a5e5f svgShape"/><path d="M626.94,457.07c-3.27-13.18-18.37-23.82-28.25-29.53-5.71-7.29-9.43-12.63-9.43-12.63C597.8,415.9,620.23,426.05,626.94,457.07Z" style="mix-blend-mode:multiply" fill="#c1d2cf" class="colorc1d2cf svgShape"/><path fill="#5c825e" d="M626,410.76c7.18-25.18,47.58-52.75,46.07-49.73s-4,7.93-6.92,19-15.23,21.4-25.93,24.8S626,410.76,626,410.76Z" class="color5c825e svgShape"/><path d="M665.4,379.14l-.24.9c-2.89,11.08-15.23,21.4-25.93,24.8S626,410.76,626,410.76C636.09,391.07,656.36,382.23,665.4,379.14Z" style="mix-blend-mode:multiply" fill="#7ba7a3" class="color7ba7a3 svgShape"/><path fill="#597274" d="M627.27,454.06c.76-38.77,9.06-45.82,31.22-48.09C663.9,432.15,666.17,446.63,627.27,454.06Z" class="color597274 svgShape"/><path d="M658.27,406l.22,0c5.41,26.18,7.68,40.66-31.22,48.09C634.09,433.87,650.35,414.59,658.27,406Z" style="mix-blend-mode:multiply" fill="#7ba7a3" class="color7ba7a3 svgShape"/><path fill="#e7f6fc" d="M597.06,464.76h64.58a0,0,0,0,1,0,0v6.65a6.57,6.57,0,0,1-6.57,6.57H603.63a6.57,6.57,0,0,1-6.57-6.57v-6.65A0,0,0,0,1,597.06,464.76Z" transform="rotate(180 629.35 471.365)" class="colore7f6fc svgShape"/><path fill="#e7f6fc" d="M613.17,478h32.36A10.44,10.44,0,0,1,656,488.42V591.64a0,0,0,0,1,0,0H602.72a0,0,0,0,1,0,0V488.42A10.44,10.44,0,0,1,613.17,478Z" transform="rotate(180 629.35 534.81)" class="colore7f6fc svgShape"/><path d="M616.89,478v88a11.7,11.7,0,0,0,11.7,11.71H656v2.27a11.7,11.7,0,0,1-11.71,11.7H614.43a11.71,11.71,0,0,1-11.71-11.7V478Z" style="mix-blend-mode:multiply" fill="#e5eceb" class="colore5eceb svgShape"/></g></svg>